<svg width="22" height="22" viewBox="0 0 22 22" fill="none" xmlns="http://www.w3.org/2000/svg">
<path d="M16.9611 8.55556V8.70556H17.1111C18.3679 8.70556 19.5733 9.20483 20.462 10.0935C21.3507 10.9823 21.85 12.1876 21.85 13.4444V19.5556C21.85 20.1641 21.6083 20.7477 21.178 21.178C20.7477 21.6083 20.1641 21.85 19.5556 21.85H2.44444C1.83592 21.85 1.25232 21.6083 0.822027 21.178C0.391735 20.7477 0.15 20.1641 0.15 19.5556V13.4444C0.15 12.1876 0.649274 10.9823 1.53799 10.0935C2.4267 9.20483 3.63206 8.70556 4.88889 8.70556H5.03889V8.55556V5.03889H7.18333V8.55556V8.70556H7.33333H9.77778H9.92778V8.55556V5.03889H12.0722V8.55556V8.70556H12.2222H14.6667H14.8167V8.55556V5.03889H16.9611V8.55556ZM2.29444 14.6667V14.8167H2.44444H19.5556H19.7056V14.6667V13.4444C19.7056 12.7564 19.4322 12.0964 18.9457 11.6099C18.4591 11.1233 17.7992 10.85 17.1111 10.85H4.88889C4.2008 10.85 3.54089 11.1233 3.05434 11.6099C2.56779 12.0964 2.29444 12.7564 2.29444 13.4444V14.6667ZM2.44444 16.9611H2.29444V17.1111V19.5556V19.7056H2.44444H19.5556H19.7056V19.5556V17.1111V16.9611H19.5556H2.44444ZM5.03889 1.364C5.34765 1.33006 5.63746 1.19204 5.8592 0.970308C6.07871 0.750792 6.21617 0.464561 6.25184 0.159271C6.48427 0.19004 6.70167 0.29643 6.86929 0.464047C7.07037 0.665127 7.18333 0.937851 7.18333 1.22222V2.44444C7.18333 2.72882 7.07037 3.00154 6.86929 3.20262C6.66821 3.4037 6.39548 3.51667 6.11111 3.51667C5.82674 3.51667 5.55402 3.4037 5.35294 3.20262C5.15185 3.00154 5.03889 2.72882 5.03889 2.44444V1.364ZM9.92778 1.364C10.2365 1.33006 10.5263 1.19204 10.7481 0.970308C10.9676 0.750792 11.1051 0.464561 11.1407 0.159271C11.3732 0.19004 11.5906 0.29643 11.7582 0.464047C11.9593 0.665127 12.0722 0.937851 12.0722 1.22222V2.44444C12.0722 2.72882 11.9593 3.00154 11.7582 3.20262C11.5571 3.4037 11.2844 3.51667 11 3.51667C10.7156 3.51667 10.4429 3.4037 10.2418 3.20262C10.0407 3.00154 9.92778 2.72882 9.92778 2.44444V1.364ZM14.8167 1.364C15.1254 1.33006 15.4152 1.19204 15.637 0.970308C15.8565 0.750792 15.994 0.464561 16.0296 0.159271C16.262 0.19004 16.4794 0.29643 16.6471 0.464047C16.8481 0.665127 16.9611 0.937851 16.9611 1.22222V2.44444C16.9611 2.72882 16.8481 3.00154 16.6471 3.20262C16.446 3.4037 16.1733 3.51667 15.8889 3.51667C15.6045 3.51667 15.3318 3.4037 15.1307 3.20262C14.9296 3.00154 14.8167 2.72882 14.8167 2.44444V1.364Z" fill="#F95555" stroke="#F4F4F4" stroke-width="0.3"/>
</svg>
